<svg width="87" height="88" viewBox="0 0 87 88" fill="none" xmlns="http://www.w3.org/2000/svg">
<g clip-path="url(#clip0)">
<path d="M56.5001 0.113312H30.629C24.7028 0.113312 19.8822 5.0149 19.8822 11.0391V76.6209C19.8822 82.6451 24.7028 87.5467 30.629 87.5467H56.5001C62.4256 87.5467 67.2468 82.6451 67.2468 76.6209V61.0429C67.2468 60.0997 66.4949 59.3352 65.5671 59.3352C64.64 59.3352 63.8874 60.0997 63.8874 61.0429V73.2042H23.2416V12.7468H63.8874V45.6671C63.8874 46.6103 64.64 47.3748 65.5671 47.3748C66.4949 47.3748 67.2468 46.6103 67.2468 45.6671V11.0391C67.2468 5.0149 62.4262 0.113312 56.5001 0.113312V0.113312ZM63.8874 76.6195V76.6209C63.8874 80.762 60.574 84.1313 56.5001 84.1313H30.629C26.5551 84.1313 23.2416 80.762 23.2416 76.6209V76.6195H63.8874ZM23.4339 9.33147C24.1963 6.01016 27.1331 3.52868 30.629 3.52868H56.5001C59.9959 3.52868 62.9328 6.01016 63.6952 9.33147H23.4339Z" fill="#203545"/>
<path d="M43.5645 18.9939C41.1821 18.9939 39.2439 20.9644 39.2439 23.3865V25.7439C33.8433 27.5843 29.9407 32.7781 29.9407 38.8804V49.5761H28.4047C27.4769 49.5761 26.725 50.3405 26.725 51.2838V55.1874C26.725 57.7289 28.759 59.7968 31.2589 59.7968H38.1633C38.1849 62.8066 40.5995 65.2481 43.5645 65.2481C46.5296 65.2481 48.9441 62.806 48.9658 59.7968H55.8702C58.3701 59.7968 60.4041 57.7289 60.4041 55.1874V51.2838C60.4041 50.3405 59.6515 49.5761 58.7244 49.5761H57.1877V38.8804C57.1877 32.7781 53.2857 27.5843 47.8851 25.7439V23.3865C47.8851 20.9644 45.9469 18.9939 43.5645 18.9939V18.9939ZM42.6033 23.3865C42.6033 22.8482 43.0344 22.4099 43.5645 22.4099C44.0947 22.4099 44.5258 22.8482 44.5258 23.3865V25.0642C44.2082 25.0415 43.888 25.0301 43.5645 25.0301C43.2417 25.0301 42.9209 25.0415 42.6033 25.0642V23.3865ZM43.5645 61.8327C42.4517 61.8327 41.5443 60.9235 41.5233 59.7968H45.6064C45.5847 60.9235 44.6773 61.8327 43.5645 61.8327ZM57.0447 55.1874C57.0447 55.8458 56.5178 56.3815 55.8702 56.3815H31.2589C30.6113 56.3815 30.0844 55.8458 30.0844 55.1874V52.9915H57.0447V55.1874ZM53.8283 38.8804V49.5761H33.3007V38.8804C33.3007 33.1263 37.9048 28.4455 43.5645 28.4455C49.2243 28.4455 53.8283 33.1263 53.8283 38.8804V38.8804Z" fill="#203545"/>
<path d="M65.5665 55.06C64.8762 55.06 64.2405 54.6111 63.9977 53.9554C63.7543 53.2976 63.938 52.5325 64.4596 52.0682C64.9976 51.5906 65.7869 51.5126 66.4063 51.8728C67.0224 52.2303 67.3551 52.9788 67.2147 53.6852C67.0572 54.473 66.3604 55.06 65.5665 55.06V55.06Z" fill="#203545"/>
<path d="M45.9574 82.0834H41.1716C40.2445 82.0834 39.4919 81.3183 39.4919 80.3758C39.4919 79.4325 40.2445 78.6681 41.1716 78.6681H45.9574C46.8852 78.6681 47.6371 79.4325 47.6371 80.3758C47.6371 81.3183 46.8852 82.0834 45.9574 82.0834Z" fill="#203545"/>
<path d="M82.0556 54.3116C81.7105 54.3116 81.362 54.2042 81.0629 53.98C80.3155 53.4217 80.1541 52.3531 80.7033 51.5933C82.3403 49.3279 83.2051 46.6437 83.2051 43.83C83.2051 41.0163 82.3403 38.3321 80.7033 36.0667C80.1541 35.3069 80.3149 34.2376 81.0629 33.6799C81.8102 33.1216 82.8613 33.2844 83.4111 34.0448C85.474 36.9005 86.5645 40.2839 86.5645 43.83C86.5645 47.3761 85.474 50.7595 83.4111 53.6152C83.0818 54.0708 82.5719 54.3116 82.0556 54.3116V54.3116Z" fill="#203545"/>
<path d="M77.3091 50.6894C76.9699 50.6894 76.6274 50.5853 76.3309 50.3685C75.5776 49.8182 75.4051 48.7516 75.9457 47.9858C76.8046 46.7697 77.2586 45.3329 77.2586 43.83C77.2586 42.3271 76.8046 40.8902 75.9457 39.6749C75.4051 38.9084 75.5776 37.8418 76.3309 37.2914C77.0841 36.7411 78.1339 36.9165 78.6745 37.683C79.9455 39.4821 80.6173 41.608 80.6173 43.83C80.6173 46.0526 79.9455 48.1779 78.6745 49.9776C78.3465 50.4419 77.8314 50.6894 77.3091 50.6894V50.6894Z" fill="#203545"/>
<path d="M5.07343 54.3116C4.55705 54.3116 4.04724 54.0708 3.71786 53.6152C1.655 50.7595 0.564514 47.3761 0.564514 43.83C0.564514 40.2839 1.655 36.9005 3.71786 34.0448C4.2677 33.2851 5.31882 33.1216 6.06615 33.6793C6.81348 34.2376 6.97423 35.3069 6.4257 36.0667C4.78867 38.3321 3.92389 41.0163 3.92389 43.83C3.92389 46.6437 4.78867 49.3279 6.4257 51.5933C6.97488 52.3531 6.81413 53.4224 6.06615 53.9807C5.76695 54.2042 5.41855 54.3116 5.07343 54.3116V54.3116Z" fill="#203545"/>
<path d="M9.82051 50.6894C9.29758 50.6894 8.78252 50.4419 8.45445 49.9777C7.18353 48.1779 6.51166 46.052 6.51166 43.83C6.51166 41.608 7.18353 39.4821 8.45445 37.6823C8.9951 36.9166 10.0443 36.7411 10.7981 37.2914C11.5514 37.8418 11.7239 38.9084 11.1833 39.6742C10.3244 40.8903 9.87038 42.3271 9.87038 43.83C9.87038 45.3329 10.3244 46.7698 11.1833 47.9852C11.7239 48.7516 11.5514 49.8182 10.7981 50.3686C10.5016 50.5854 10.1591 50.6894 9.82051 50.6894V50.6894Z" fill="#203545"/>
</g>
<defs>
<clipPath id="clip0">
<rect x="0.564514" y="0.113312" width="86" height="87.4334" fill="white"/>
</clipPath>
</defs>
</svg>
