<svg width="103" height="103" viewBox="0 0 103 103" fill="none" xmlns="http://www.w3.org/2000/svg">
<g clip-path="url(#clip0)">
<path d="M98.3849 64.1411L76.0724 57.7661C75.7911 57.6864 75.4931 57.6864 75.2118 57.7661L52.8993 64.1411C52.5653 64.2347 52.2709 64.4348 52.061 64.711C51.851 64.9871 51.7368 65.3242 51.7358 65.6711V72.0461C51.7375 72.2932 51.7959 72.5366 51.9064 72.7577C52.0169 72.9787 52.1767 73.1714 52.3733 73.3211C52.5677 73.4705 52.7948 73.5715 53.0359 73.6158C53.2769 73.6602 53.5251 73.6465 53.7599 73.5761L56.5171 72.7951V97.5461C56.5171 97.9688 56.685 98.3741 56.9839 98.673C57.2828 98.9719 57.6882 99.1398 58.1108 99.1398H93.1733C93.596 99.1398 94.0014 98.9719 94.3003 98.673C94.5992 98.3741 94.7671 97.9688 94.7671 97.5461V72.7951L97.5243 73.5761C97.6633 73.6206 97.8086 73.6421 97.9546 73.6398C98.3773 73.6398 98.7827 73.4719 99.0815 73.173C99.3804 72.8741 99.5483 72.4688 99.5483 72.0461V65.6711C99.5473 65.3242 99.4332 64.9871 99.2232 64.711C99.0132 64.4348 98.7189 64.2347 98.3849 64.1411ZM78.8296 95.9523H72.4546V83.2023H78.8296V95.9523ZM91.5796 95.9523H82.0171V81.6086C82.0171 81.1859 81.8492 80.7805 81.5503 80.4816C81.2514 80.1827 80.846 80.0148 80.4233 80.0148H70.8608C70.4382 80.0148 70.0328 80.1827 69.7339 80.4816C69.435 80.7805 69.2671 81.1859 69.2671 81.6086V95.9523H59.7046V71.8867L75.6421 67.3286L91.5796 71.8867V95.9523ZM96.3608 69.9264L76.0724 64.1411C75.7918 64.0561 75.4924 64.0561 75.2118 64.1411L54.9233 69.9264V66.8664L75.6421 60.9536L96.3608 66.8664V69.9264Z" fill="#203545"/>
<path d="M34.2046 3.51483H5.51709C5.0944 3.51483 4.68902 3.68274 4.39014 3.98163C4.09125 4.28052 3.92334 4.68589 3.92334 5.10858V33.7961C3.92334 34.2188 4.09125 34.6241 4.39014 34.923C4.68902 35.2219 5.0944 35.3898 5.51709 35.3898H34.2046C34.6273 35.3898 35.0327 35.2219 35.3315 34.923C35.6304 34.6241 35.7983 34.2188 35.7983 33.7961V5.10858C35.7983 4.68589 35.6304 4.28052 35.3315 3.98163C35.0327 3.68274 34.6273 3.51483 34.2046 3.51483ZM18.2671 6.70233H21.4546V11.8342L18.2671 12.6311V6.70233ZM7.11084 6.70233H15.0796V8.29608H7.11084V6.70233ZM32.6108 32.2023H7.11084V11.4836H15.0796V14.6711C15.0775 14.881 15.1172 15.0892 15.1966 15.2835C15.2759 15.4778 15.3932 15.6544 15.5416 15.8028C15.6901 15.9512 15.8666 16.0685 16.0609 16.1479C16.2552 16.2272 16.4635 16.267 16.6733 16.2648C16.8023 16.2647 16.9308 16.2486 17.0558 16.217L23.4308 14.6233C23.7764 14.5378 24.0834 14.3392 24.3029 14.059C24.5224 13.7789 24.6418 13.4333 24.6421 13.0773V11.4836H32.6108V32.2023ZM32.6108 8.29608H24.6421V6.70233H32.6108V8.29608Z" fill="#203545"/>
<path d="M10.2983 24.2336H16.6733V27.4211H10.2983V24.2336Z" fill="#203545"/>
<path d="M21.4546 68.0617C21.4592 64.0476 23.0559 60.1992 25.8943 57.3608C28.7327 54.5224 32.5811 52.9257 36.5952 52.9211H69.2671C72.2259 52.9211 75.0635 51.7457 77.1558 49.6535C79.248 47.5613 80.4233 44.7237 80.4233 41.7648C80.4233 38.806 79.248 35.9684 77.1558 33.8762C75.0635 31.784 72.2259 30.6086 69.2671 30.6086H62.8921V33.7961H69.2671C71.3805 33.7961 73.4074 34.6356 74.9018 36.1301C76.3963 37.6245 77.2358 39.6514 77.2358 41.7648C77.2358 43.8783 76.3963 45.9052 74.9018 47.3996C73.4074 48.894 71.3805 49.7336 69.2671 49.7336H36.5952C31.7343 49.7336 27.0725 51.6646 23.6353 55.1018C20.1981 58.539 18.2671 63.2008 18.2671 68.0617C18.2671 72.9226 20.1981 77.5845 23.6353 81.0216C27.0725 84.4588 31.7343 86.3898 36.5952 86.3898H38.9858V83.2023H36.5952C32.5811 83.1977 28.7327 81.601 25.8943 78.7626C23.0559 75.9242 21.4592 72.0758 21.4546 68.0617Z" fill="#203545"/>
<path d="M51.7358 27.4211C51.9939 27.4211 52.248 27.3584 52.4765 27.2385C52.705 27.1186 52.9009 26.945 53.0475 26.7326C54.1599 25.1245 59.7046 16.9023 59.7046 13.0773C59.7046 10.9639 58.865 8.93701 57.3706 7.44257C55.8762 5.94814 53.8493 5.10858 51.7358 5.10858C49.6224 5.10858 47.5955 5.94814 46.1011 7.44257C44.6067 8.93701 43.7671 10.9639 43.7671 13.0773C43.7671 16.9023 49.3117 25.1245 50.4242 26.7326C50.5707 26.945 50.7667 27.1186 50.9952 27.2385C51.2236 27.3584 51.4778 27.4211 51.7358 27.4211ZM51.7358 8.29608C53.0039 8.29608 54.22 8.79982 55.1167 9.69648C56.0134 10.5931 56.5171 11.8093 56.5171 13.0773C56.5171 14.8177 54.0292 19.3615 51.7358 22.9458C49.4424 19.3615 46.9546 14.8177 46.9546 13.0773C46.9546 11.8093 47.4583 10.5931 48.355 9.69648C49.2516 8.79982 50.4678 8.29608 51.7358 8.29608Z" fill="#203545"/>
<path d="M51.7358 16.2648C53.4962 16.2648 54.9233 14.8377 54.9233 13.0773C54.9233 11.3169 53.4962 9.88983 51.7358 9.88983C49.9754 9.88983 48.5483 11.3169 48.5483 13.0773C48.5483 14.8377 49.9754 16.2648 51.7358 16.2648Z" fill="#203545"/>
<path d="M42.1733 83.2023H45.3608V86.3898H42.1733V83.2023Z" fill="#203545"/>
<path d="M48.5483 83.2023H51.7358V86.3898H48.5483V83.2023Z" fill="#203545"/>
<path d="M50.1421 30.6086H53.3296V33.7961H50.1421V30.6086Z" fill="#203545"/>
<path d="M56.5171 30.6086H59.7046V33.7961H56.5171V30.6086Z" fill="#203545"/>
<g clip-path="url(#clip1)">
<path d="M143.262 -115H-181.005C-185.715 -115 -189.538 -111.177 -189.538 -106.467V166.6C-189.538 171.319 -185.715 175.133 -181.005 175.133H-112.738V158.066H-172.471V-97.934H134.729V158.066H-27.4047V175.133H143.262C147.981 175.133 151.795 171.319 151.795 166.6V-106.467C151.795 -111.177 147.981 -115 143.262 -115Z" fill="black"/>
</g>
</g>
<defs>
<clipPath id="clip0">
<rect x="0.73584" y="0.327332" width="102" height="102" fill="white"/>
</clipPath>
<clipPath id="clip1">
<rect x="-189.813" y="-222" width="512" height="512" fill="white"/>
</clipPath>
</defs>
</svg>
