<svg width="103" height="107" viewBox="0 0 103 107" fill="none" xmlns="http://www.w3.org/2000/svg">
<path d="M46.6164 38.8928C46.004 38.4358 45.1351 38.5589 44.6755 39.167C44.2157 39.7754 44.3394 40.6386 44.9515 41.0955C45.9815 41.8639 47.007 42.8992 48.0001 44.1728C49.5461 46.155 50.2278 47.7922 49.9719 48.9069C49.7692 49.7894 48.9545 50.5579 47.4074 51.3254C45.1909 52.4249 44.8911 54.5823 44.65 56.3158C44.389 58.194 44.1865 59.1953 42.7639 59.6493C41.3664 60.0953 40.0547 59.8051 39.1648 58.8529C38.2237 57.8462 37.9705 56.3253 38.5194 54.978C39.3002 53.0615 39.1125 51.4048 37.9618 50.0546C37.0617 48.9984 35.7107 48.309 34.4042 47.6422C33.9726 47.4217 33.5263 47.1939 33.1143 46.9614C32.5385 46.6362 32.2914 46.2291 32.313 45.6415C32.385 43.677 34.9676 41.2615 37.319 40.1499C38.4142 39.6321 39.5075 39.3871 40.5658 39.4113C41.3304 39.4313 41.9679 38.8312 41.9879 38.0707C42.008 37.3103 41.4038 36.6777 40.6385 36.6577C39.1393 36.6178 37.621 36.9565 36.1281 37.6624C32.415 39.4172 29.6455 42.7309 29.5425 45.5413C29.4828 47.1659 30.2649 48.5207 31.7444 49.3562C32.2074 49.6178 32.6803 49.8589 33.1373 50.0922C36.0304 51.569 36.6844 52.1401 35.9494 53.9446C34.9986 56.2785 35.4634 58.941 37.1332 60.7275C38.2852 61.9599 39.8344 62.6093 41.5024 62.6093C42.1917 62.6093 42.9014 62.4986 43.6115 62.2719C46.7606 61.267 47.1279 58.6231 47.3965 56.6925C47.6334 54.9876 47.8233 54.198 48.6458 53.79C50.9609 52.6415 52.2789 51.2445 52.6749 49.5195C53.1343 47.518 52.3221 45.2172 50.1918 42.4855C49.0473 41.0177 47.8443 39.8089 46.6164 38.8928V38.8928Z" fill="#203545"/>
<path d="M89.0573 77.0564C97.568 68.6005 102.253 57.3566 102.25 45.3957C102.247 33.4358 97.5567 22.1907 89.0431 13.7317C87.5455 12.1803 84.8485 12.1801 83.3511 13.7315L77.7792 19.2677C72.0996 14.8407 64.9462 12.1979 57.1827 12.1979C38.755 12.1979 23.763 27.0864 23.763 45.3871C23.763 53.1024 26.4279 60.2112 30.8913 65.8537L25.3224 71.3868C23.7609 72.8749 23.7608 75.5542 25.3222 77.0421C28.1341 79.836 31.2843 82.2435 34.6855 84.1977C36.2992 85.056 37.6336 82.7846 36.0736 81.8133C32.8815 79.9791 29.9238 77.7187 27.2825 75.0942C26.7967 74.6315 26.7969 73.7977 27.2827 73.3348L32.7002 67.9524C33.2688 68.5602 33.8597 69.1469 34.4719 69.7112L30.9821 73.1784C30.4191 73.7145 30.4521 74.6922 31.0502 75.1896C38.2756 81.4626 47.5599 84.9188 57.203 84.9212C67.8276 84.9212 77.815 80.8115 85.3258 73.349C89.6105 69.0919 92.7834 64.0883 94.7565 58.4772C95.009 57.7591 94.6277 56.9736 93.905 56.7227C93.1816 56.4715 92.3915 56.8506 92.139 57.5688C90.3047 62.7856 87.3528 67.4394 83.3655 71.4012C76.3784 78.3435 67.0871 82.1667 57.1936 82.1667C48.7293 82.1645 40.5556 79.2976 34.0123 74.0637L36.5862 71.5065C42.266 75.9334 49.4194 78.5763 57.1827 78.5763C75.6105 78.5763 90.6023 63.6878 90.6023 45.3873C90.6023 37.6718 87.9374 30.563 83.474 24.9205L86.045 22.3661C91.3128 28.8676 94.1983 36.9886 94.2005 45.3983C94.2011 47.7682 93.9753 50.1372 93.5292 52.4392C93.2432 54.2362 95.8384 54.7429 96.2517 52.9601C96.731 50.4864 96.9736 47.9422 96.973 45.3976C96.9706 35.8268 93.4922 26.6021 87.1784 19.423C86.6781 18.8286 85.6935 18.7962 85.1543 19.3552L81.6652 22.8218C81.0969 22.214 80.5058 21.6273 79.8935 21.0632L85.312 15.6794C85.7777 15.1969 86.6168 15.1969 87.0827 15.6798C95.0729 23.6185 99.475 34.1723 99.4777 45.3968C99.4807 56.6215 95.0838 67.1735 87.0969 75.1087C79.1136 83.0406 68.497 87.4094 57.1925 87.41C51.5265 87.4083 46.04 86.3224 40.8849 84.1826C40.1782 83.8886 39.3665 84.2204 39.0714 84.9225C38.7762 85.6244 39.1096 86.4311 39.816 86.7242C44.8782 88.8256 50.2387 89.971 55.7784 90.1401V95.7474H43.3448C40.0325 95.7474 37.3377 98.4246 37.3377 101.716V104.722C37.3377 105.483 37.9583 106.1 38.724 106.1H82.2956C83.0613 106.1 83.6819 105.483 83.6819 104.722V101.716C83.6819 98.4246 80.987 95.7474 77.6748 95.7474H65.2412V89.456C74.2154 87.8589 82.4761 83.595 89.0573 77.0564V77.0564ZM57.1827 14.9526C61.7439 14.9526 66.0748 15.9489 69.9685 17.7311C69.3435 19.8201 68.6902 20.8792 68.2247 21.4082C65.8546 24.0996 68.1003 26.6382 69.5862 28.3182C70.8761 29.7766 71.7011 30.8018 71.4249 31.7312C71.1397 32.6906 70.1441 33.1117 68.5433 33.7193C67.0812 34.2743 65.4239 34.9033 64.4805 36.4126C63.5197 37.9495 64.2204 39.9513 64.8978 41.8873C65.1897 42.7212 65.797 44.4563 65.5882 44.8417C65.5865 44.8433 65.3955 44.9966 64.6658 44.9966C60.0557 44.9966 57.5235 40.4688 57.4052 35.9964C57.3459 33.7604 56.6504 32.1081 55.2789 30.9454C53.0267 29.0358 49.0648 28.6156 42.0311 29.5405C38.8059 29.9653 36.2318 28.4669 34.3687 25.0886C39.984 18.8712 48.1306 14.9526 57.1827 14.9526V14.9526ZM46.624 73.9595C46.0832 71.6928 46.2428 69.828 47.1054 68.412C48.2802 66.4841 49.1874 66.732 51.638 67.7332C53.3889 68.4487 55.5681 69.3385 57.798 68.24C60.3152 67.0002 61.0665 64.7106 61.7295 62.6904C62.2833 61.0028 62.7616 59.5457 64.1534 58.7937C65.5954 58.0148 68.3375 57.7665 70.9505 59.0617C73.1471 60.1501 75.9335 62.686 77.004 68.5789C71.6562 73.0929 64.7348 75.8212 57.1827 75.8212C53.474 75.8214 49.9171 75.1633 46.624 73.9595V73.9595ZM79.3586 66.3733C77.8653 60.5575 74.7206 57.8519 72.188 56.5967C68.6677 54.8522 64.951 55.2275 62.8291 56.3739C60.4679 57.6493 59.7376 59.8739 59.0936 61.8365C58.5284 63.5587 58.0403 65.0462 56.5666 65.7719C55.5353 66.2798 54.415 65.8891 52.6924 65.1856C50.5043 64.2919 47.1977 62.9413 44.7336 66.9857C43.7596 68.5849 43.3821 70.4877 43.5968 72.6621C33.4956 67.68 26.5357 57.3265 26.5357 45.3873C26.5357 38.6471 28.755 32.4128 32.5038 27.3639C34.9149 31.1179 38.3001 32.8102 42.3949 32.2715C48.406 31.4807 51.9278 31.7254 53.4793 33.0409C53.9511 33.4409 54.5839 34.1899 54.6337 36.069C54.7875 41.8744 58.2829 47.7515 64.666 47.7515C66.153 47.7515 67.2214 47.3121 67.8415 46.4457C68.9073 44.9563 68.2003 42.9363 67.5168 40.9827C67.1871 40.0404 66.5732 38.2865 66.8358 37.8662C67.2862 37.1456 68.3775 36.7313 69.5329 36.2928C71.254 35.6395 73.3962 34.8263 74.0841 32.5114C74.814 30.055 73.0702 28.0838 71.669 26.4997C69.807 24.3948 69.706 23.9096 70.3113 23.2222C71.1484 22.2718 71.8713 20.8598 72.4693 19.0166C78.2451 22.3312 82.8364 27.4631 85.4454 33.6194C84.2389 35.1337 83.5176 36.9655 82.8719 38.6088C82.6971 39.0533 82.532 39.4733 82.3674 39.8594C82.0364 40.6357 81.3123 40.9743 80.0606 41.5061C78.1447 42.3201 75.521 43.4346 74.9118 47.6328C74.502 50.4578 75.9584 54.5507 84.9149 58.3328C83.5011 61.3069 81.6183 64.0195 79.3586 66.3733V66.3733ZM85.9855 55.7891C84.2332 55.043 82.1623 54.0128 80.5056 52.7549C78.3923 51.1501 77.4335 49.5591 77.6559 48.0259C78.0428 45.3589 79.4141 44.7764 81.1506 44.0387C82.5507 43.4438 84.1376 42.7698 84.9205 40.9334C85.1002 40.5114 85.2723 40.0736 85.4545 39.6101C85.8002 38.7304 86.171 37.7893 86.6209 36.9162C87.4071 39.6063 87.83 42.4483 87.83 45.3869C87.8298 49.0388 87.1782 52.5421 85.9855 55.7891ZM80.9091 101.715V103.345H40.11V101.715C40.11 99.9434 41.5611 98.5017 43.3446 98.5017H77.6746C79.4583 98.5017 80.9091 99.9434 80.9091 101.715ZM62.4685 95.7472H58.5505V90.1426C59.8672 90.1045 61.1739 90.0098 62.4685 89.8609V95.7472Z" fill="#203545"/>
</svg>
