<svg width="543" height="416" viewBox="0 0 543 416" fill="none" xmlns="http://www.w3.org/2000/svg">
<path d="M263.37 305.682L242.661 263.968V262.785L247.69 251.839L270.47 300.948L263.37 305.682Z" fill="#919291"/>
<path d="M236.581 345.662L190.046 343.823L188.966 344.306L181.034 353.372L235.165 354.077L236.581 345.662Z" fill="#919291"/>
<circle cx="295.526" cy="352.141" r="63.6133" fill="#4D4D4D"/>
<circle cx="295.526" cy="352.141" r="31.2486" fill="#E6E6E6"/>
<circle r="7.81216" transform="matrix(1 0 0 -1 295.527 352.141)" fill="#969696"/>
<path d="M455.618 16.6557L459.929 10.8351L460.792 9.7572L521.154 51.4717L516.088 57.6157L455.618 16.6557Z" fill="white"/>
<path d="M522.555 53.9509L457.234 8.14033L461.546 0.810669H542.496V25.0633L522.555 53.9509Z" fill="#545454"/>
<path fill-rule="evenodd" clip-rule="evenodd" d="M187.154 360.987L189.49 357.026L376.606 54.7767L395.184 66.0159L401.901 54.913L377.146 40.0166L377.143 40.0203L373.608 37.813L182.844 345.954L54.1291 266.546L42.3999 269.887L187.154 360.987Z" fill="#C4C4C4"/>
<path fill-rule="evenodd" clip-rule="evenodd" d="M500.524 93.8102C500.286 94.3805 499.979 94.9327 499.602 95.4557L471.632 134.274C469.506 137.225 465.39 137.893 462.439 135.767C458.013 132.578 457.01 126.404 460.199 121.978L465.495 114.627L465.49 114.624C465.761 114.25 465.92 113.79 465.92 113.293C465.92 112.045 464.916 111.033 463.677 111.033C462.977 111.033 462.352 111.356 461.941 111.861L453.463 123.626C450.93 127.142 446.026 127.939 442.51 125.405C438.994 122.872 438.198 117.968 440.731 114.452L449.237 102.648C449.382 102.333 449.463 101.983 449.463 101.614C449.463 100.242 448.345 99.1297 446.965 99.1297C446.319 99.1297 445.729 99.3743 445.286 99.7755L436.083 112.548C433.542 116.073 428.625 116.872 425.1 114.332C421.575 111.792 420.776 106.875 423.316 103.35L432.01 91.2844L432.007 91.2821C432.259 90.8937 432.406 90.4307 432.406 89.9335C432.406 88.5615 431.288 87.4492 429.909 87.4492C429.096 87.4492 428.375 87.835 427.919 88.4324L427.917 88.4315L420.269 99.0456C417.729 102.571 412.812 103.37 409.287 100.829C405.762 98.2893 404.963 93.3724 407.503 89.8471L415.008 79.4322L410.903 76.5706L405.334 84.2986C402.822 87.7857 397.958 88.5757 394.471 86.0631C390.93 83.5119 390.179 78.5485 392.807 75.064L422.854 35.2124C423.218 34.6952 423.597 34.1929 423.99 33.7058L424.586 32.9145C424.954 32.4265 425.373 31.9976 425.831 31.6302C434.984 22.25 449.652 19.8735 461.524 26.7277L494.371 45.6919C508.418 53.8017 513.23 71.7631 505.121 85.8098C504.878 86.2304 504.626 86.6428 504.366 87.0467C503.195 89.3871 501.873 91.6767 500.524 93.8102Z" fill="#F9C4A2"/>
<path d="M426.412 63.3002L420.856 60.2845L408.714 76.9506L414.269 79.9664L426.412 63.3002Z" fill="#4D4D4B"/>
<path d="M411.428 78.355L423.438 61.8801L420.802 60.1707L418.015 58.6731L405.873 75.3392L411.428 78.355Z" fill="#323232"/>
<rect x="408.427" y="42.9506" width="19.7869" height="38.0699" rx="5" transform="rotate(31.3115 408.427 42.9506)" fill="#4D4D4B"/>
<circle cx="471.571" cy="5.55342" r="3.77266" fill="white"/>
<rect width="216.251" height="152.509" transform="matrix(0.848965 0.528448 -0.525345 0.850889 80.4709 103.105)" fill="#D29B62"/>
<rect width="50.6893" height="32.5523" transform="matrix(0.848965 0.528448 -0.525345 0.850889 82.3665 113.074)" fill="#E3F2F9"/>
<rect width="40.9137" height="36.2986" transform="matrix(-0.527613 0.849485 -0.847547 -0.53072 184.539 168.04)" fill="#E0B990"/>
<rect width="40.9137" height="36.2986" transform="matrix(-0.527613 0.849485 -0.847547 -0.53072 125.471 262.683)" fill="#DFB992"/>
<rect x="0.16181" y="0.689669" width="66.5651" height="35.0315" rx="4.5" transform="matrix(0.848965 0.528448 -0.525345 0.850889 28.4747 202.168)" stroke="#534C45"/>
<path d="M457.94 18.4091C453.821 23.0711 440.03 25.3567 434.561 25.5264L508.69 75.6657C504.028 64.9839 511.236 59.145 515.423 57.5608L457.94 18.4091Z" fill="#F9C4A2"/>
<path d="M94.768 126.484L93.6097 125.767L81.585 145.354L82.7432 146.071L94.768 126.484Z" fill="black"/>
<path d="M91.8346 124.669L91.2556 124.31L79.2308 143.897L79.8098 144.255L91.8346 124.669Z" fill="black"/>
<path d="M98.2989 128.67L97.7196 128.311L85.6948 147.898L86.2741 148.257L98.2989 128.67Z" fill="black"/>
<path d="M97.122 127.941L96.5427 127.583L84.5179 147.169L85.0972 147.528L97.122 127.941Z" fill="black"/>
<path d="M87.145 121.766L86.5471 121.396L74.5224 140.983L75.1202 141.353L87.145 121.766Z" fill="black"/>
<path d="M88.9011 122.853L88.3219 122.495L76.2971 142.081L76.8763 142.44L88.9011 122.853Z" fill="black"/>
<path d="M85.9676 121.038L84.7905 120.31L72.7572 139.91L73.9342 140.639L85.9676 121.038Z" fill="black"/>
<path d="M99.4764 129.399L98.8971 129.04L86.8723 148.627L87.4516 148.985L99.4764 129.399Z" fill="black"/>
<path d="M111.807 137.031L110.63 136.302L98.6055 155.889L99.7825 156.618L111.807 137.031Z" fill="black"/>
<path d="M115.338 139.217L113.582 138.13L101.557 157.716L103.314 158.803L115.338 139.217Z" fill="black"/>
<path d="M116.515 139.945L115.918 139.575L103.893 159.162L104.491 159.532L116.515 139.945Z" fill="black"/>
<path d="M118.272 141.032L117.095 140.304L105.061 159.904L106.238 160.633L118.272 141.032Z" fill="black"/>
<path d="M107.697 134.487L106.52 133.758L94.4951 153.345L95.6722 154.073L107.697 134.487Z" fill="black"/>
<path d="M110.051 135.944L108.874 135.215L96.8492 154.802L98.0263 155.531L110.051 135.944Z" fill="black"/>
<path d="M105.343 133.03L104.166 132.301L92.141 151.888L93.318 152.616L105.343 133.03Z" fill="black"/>
<path d="M102.409 131.214L101.232 130.485L89.2075 150.072L90.3847 150.801L102.409 131.214Z" fill="black"/>
<g clip-path="url(#clip0)">
<path d="M61.0498 243.172C60.6615 242.932 60.2582 242.738 59.8482 242.581L59.256 243.546L54.1981 251.785C53.8832 252.296 53.4025 252.624 52.8622 252.754C52.3214 252.882 51.7458 252.806 51.2347 252.491C50.7255 252.175 50.3988 251.692 50.2695 251.149C50.142 250.606 50.218 250.028 50.5318 249.515L50.9428 248.846L48.609 247.402L48.198 248.071C47.4906 249.222 47.3125 250.566 47.6024 251.785C47.8889 253.005 48.6493 254.125 49.7964 254.834C50.9429 255.544 52.2812 255.723 53.4952 255.432C54.71 255.144 55.8255 254.381 56.5319 253.229L61.5898 244.99L62.1747 244.037C61.8349 243.719 61.4608 243.427 61.0498 243.172Z" fill="#534C45"/>
<path d="M68.5202 233.7L69.6816 231.808L67.3483 230.364L66.1901 232.25C59.2972 228.702 51.278 230.034 46.924 236.283C48.4845 235.48 50.4347 235.495 52.0683 236.506C53.8813 237.629 54.7815 239.655 54.5402 241.607L54.553 241.601C56.7151 240.14 59.6598 240.004 62.0766 241.5C64.4898 242.993 65.6922 245.687 65.3732 248.284L65.3706 248.311C66.9953 247.215 69.2055 247.114 71.0196 248.237C72.6495 249.245 73.5431 250.99 73.5259 252.749C77.1172 246.056 74.7295 238.297 68.5202 233.7Z" fill="#534C45"/>
</g>
<rect width="24.3933" height="4.23345" transform="matrix(0.850934 0.525272 -0.522173 0.85284 19.4627 229.646)" fill="#534C45"/>
<path d="M35.655 223.856L36.6429 212.601C36.6539 212.476 36.6145 212.376 36.5419 212.334C36.4691 212.291 36.3629 212.307 36.2602 212.379L27.047 218.866C26.9205 218.955 26.816 219.113 26.7774 219.275C26.7386 219.437 26.7724 219.573 26.8648 219.626L29.042 220.889L23.7097 230.162C23.5815 230.385 23.586 230.628 23.7197 230.706L27.1066 232.669C27.2403 232.747 27.4522 232.629 27.5804 232.406L32.9128 223.132L35.0901 224.395C35.1824 224.448 35.3168 224.409 35.4369 224.295C35.5568 224.181 35.6415 224.01 35.655 223.856Z" fill="black"/>
<path d="M46.7833 230.163L47.7712 218.908C47.7822 218.783 47.7428 218.683 47.6702 218.641C47.5975 218.598 47.4913 218.614 47.3885 218.686L38.1753 225.173C38.0489 225.262 37.9443 225.421 37.9057 225.582C37.8669 225.744 37.9007 225.88 37.9931 225.933L40.1704 227.196L34.838 236.469C34.7099 236.692 34.7144 236.935 34.8481 237.013L38.235 238.976C38.3687 239.054 38.5806 238.936 38.7088 238.713L44.0411 229.44L46.2184 230.702C46.3108 230.755 46.4452 230.717 46.5653 230.602C46.6851 230.488 46.7698 230.317 46.7833 230.163Z" fill="black"/>
<defs>
<clipPath id="clip0">
<rect width="31.2853" height="31.3427" transform="matrix(0.850311 0.52628 -0.52318 0.852222 55.521 222.279)" fill="white"/>
</clipPath>
</defs>
</svg>
