<svg width="104" height="104" viewBox="0 0 104 104" fill="none" xmlns="http://www.w3.org/2000/svg">
<g clip-path="url(#clip0)">
<path d="M25.0276 68.4667C19.3471 68.4667 14.7276 73.1311 14.7276 78.8667C14.7276 84.6024 19.3471 89.2667 25.0276 89.2667C30.7081 89.2667 35.3276 84.6024 35.3276 78.8667C35.3276 73.1311 30.7079 68.4667 25.0276 68.4667ZM25.0276 85.8C21.2405 85.8 18.161 82.6904 18.161 78.8667C18.161 75.0429 21.2407 71.9335 25.0276 71.9335C28.8145 71.9335 31.8942 75.0431 31.8942 78.8667C31.8942 82.6904 28.8145 85.8 25.0276 85.8Z" fill="#203545"/>
<path d="M83.3942 68.4667C77.7137 68.4667 73.0942 73.1311 73.0942 78.8667C73.0942 84.6024 77.7137 89.2667 83.3942 89.2667C89.0747 89.2667 93.6942 84.6024 93.6942 78.8667C93.6942 73.1311 89.0747 68.4667 83.3942 68.4667ZM83.3942 85.8C79.6071 85.8 76.5276 82.6904 76.5276 78.8667C76.5276 75.0429 79.6073 71.9335 83.3942 71.9335C87.1812 71.9335 90.2608 75.0431 90.2608 78.8667C90.2608 82.6904 87.1812 85.8 83.3942 85.8Z" fill="#203545"/>
<path d="M103.721 58.8624L88.2712 34.5956C87.9554 34.0998 87.4112 33.8 86.8274 33.8H67.9442C66.9949 33.8 66.2276 34.5766 66.2276 35.5333V78.8665C66.2276 79.8251 66.9949 80.5998 67.9442 80.5998H74.8108V77.1331H69.6608V37.2667H85.8901L100.561 60.3096V77.1335H91.9774V80.6H102.277C103.227 80.6 103.994 79.8253 103.994 78.8667V59.8C103.994 59.4689 103.9 59.1413 103.721 58.8624Z" fill="#203545"/>
<path d="M76.5276 56.3333V44.2H90.261V40.7333H74.811C73.8617 40.7333 73.0944 41.5098 73.0944 42.4665V58.0665C73.0944 59.0251 73.8617 59.7998 74.811 59.7998H100.561V56.3331H76.5276V56.3333Z" fill="#203545"/>
<path d="M67.9442 21.6667H2.7108C1.76328 21.6667 0.994202 22.4433 0.994202 23.4V78.8667C0.994202 79.8253 1.76328 80.6 2.7108 80.6H16.4442V77.1333H4.4276V25.1333H66.2276V77.1333H33.6108V80.6H67.9442C68.8935 80.6 69.6608 79.8253 69.6608 78.8667V23.4C69.6608 22.4433 68.8935 21.6667 67.9442 21.6667Z" fill="#203545"/>
<path d="M13.0108 70.2H2.71082V73.6667H13.0108V70.2Z" fill="#203545"/>
<path d="M66.2276 70.2H37.0442V73.6667H66.2276V70.2Z" fill="#203545"/>
<path d="M102.277 70.2H95.4108V73.6667H102.277V70.2Z" fill="#203545"/>
<path d="M67.9442 28.6H7.86078V32.0667H67.9442V28.6Z" fill="#203545"/>
<path d="M26.7442 77.1333H23.3108V80.6H26.7442V77.1333Z" fill="#203545"/>
<path d="M85.111 77.1333H81.6776V80.6H85.111V77.1333Z" fill="#203545"/>
<path d="M31.8942 14.7333H7.86078V18.2H31.8942V14.7333Z" fill="#203545"/>
<path d="M4.4276 14.7333H0.994202V18.2H4.4276V14.7333Z" fill="#203545"/>
</g>
<defs>
<clipPath id="clip0">
<rect x="0.994202" width="103" height="104" fill="white"/>
</clipPath>
</defs>
</svg>
