<svg width="104" height="104" viewBox="0 0 104 104" fill="none" xmlns="http://www.w3.org/2000/svg">
<g clip-path="url(#clip0)">
<path d="M24.9364 68.4667C19.2559 68.4667 14.6364 73.1311 14.6364 78.8667C14.6364 84.6024 19.2559 89.2667 24.9364 89.2667C30.6169 89.2667 35.2364 84.6024 35.2364 78.8667C35.2364 73.1311 30.6167 68.4667 24.9364 68.4667ZM24.9364 85.8C21.1494 85.8 18.0698 82.6904 18.0698 78.8667C18.0698 75.0429 21.1496 71.9335 24.9364 71.9335C28.7233 71.9335 31.803 75.0431 31.803 78.8667C31.803 82.6904 28.7233 85.8 24.9364 85.8Z" fill="#203545"/>
<path d="M83.303 68.4667C77.6225 68.4667 73.003 73.1311 73.003 78.8667C73.003 84.6024 77.6225 89.2667 83.303 89.2667C88.9835 89.2667 93.603 84.6024 93.603 78.8667C93.603 73.1311 88.9835 68.4667 83.303 68.4667ZM83.303 85.8C79.5159 85.8 76.4364 82.6904 76.4364 78.8667C76.4364 75.0429 79.5161 71.9335 83.303 71.9335C87.0901 71.9335 90.1696 75.0431 90.1696 78.8667C90.1696 82.6904 87.0901 85.8 83.303 85.8Z" fill="#203545"/>
<path d="M103.63 58.8624L88.18 34.5956C87.8642 34.0998 87.32 33.8 86.7362 33.8H67.853C66.9037 33.8 66.1364 34.5766 66.1364 35.5333V78.8665C66.1364 79.8251 66.9037 80.5998 67.853 80.5998H74.7196V77.1331H69.5696V37.2667H85.7989L100.47 60.3096V77.1335H91.8862V80.6H102.186C103.136 80.6 103.903 79.8253 103.903 78.8667V59.8C103.903 59.4689 103.809 59.1413 103.63 58.8624Z" fill="#203545"/>
<path d="M76.4364 56.3333V44.2H90.1698V40.7333H74.7198C73.7705 40.7333 73.0032 41.5098 73.0032 42.4665V58.0665C73.0032 59.0251 73.7705 59.7998 74.7198 59.7998H100.47V56.3331H76.4364V56.3333Z" fill="#203545"/>
<path d="M67.853 21.6667H2.61961C1.6721 21.6667 0.903015 22.4433 0.903015 23.4V78.8667C0.903015 79.8253 1.6721 80.6 2.61961 80.6H16.353V77.1333H4.33642V25.1333H66.1364V77.1333H33.5196V80.6H67.853C68.8023 80.6 69.5696 79.8253 69.5696 78.8667V23.4C69.5696 22.4433 68.8023 21.6667 67.853 21.6667Z" fill="#203545"/>
<path d="M12.9196 70.2H2.61963V73.6667H12.9196V70.2Z" fill="#203545"/>
<path d="M66.1364 70.2H36.953V73.6667H66.1364V70.2Z" fill="#203545"/>
<path d="M102.186 70.2H95.3196V73.6667H102.186V70.2Z" fill="#203545"/>
<path d="M67.853 28.6H7.76959V32.0667H67.853V28.6Z" fill="#203545"/>
<path d="M26.653 77.1333H23.2196V80.6H26.653V77.1333Z" fill="#203545"/>
<path d="M85.0198 77.1333H81.5864V80.6H85.0198V77.1333Z" fill="#203545"/>
<path d="M31.803 14.7333H7.76959V18.2H31.803V14.7333Z" fill="#203545"/>
<path d="M4.33642 14.7333H0.903015V18.2H4.33642V14.7333Z" fill="#203545"/>
</g>
<defs>
<clipPath id="clip0">
<rect x="0.903015" width="103" height="104" fill="white"/>
</clipPath>
</defs>
</svg>
