<svg viewBox="0 0 467 170" fill="none" xmlns="http://www.w3.org/2000/svg"><path d="M222.448 95.913V62.668h11.098c3.518 0 6.627.591 9.328 1.773 2.701 1.182 4.823 3 6.367 5.456 1.543 2.455 2.315 5.614 2.315 9.467 0 3.728-.772 6.808-2.315 9.275-1.544 2.455-3.677 4.285-6.401 5.478-2.723 1.194-5.844 1.796-9.362 1.796h-11.03zm4.777-4.285h6.174c4.153 0 7.376-1.023 9.68-3.069 2.303-2.046 3.461-5.08 3.461-9.092 0-4.058-1.124-7.15-3.359-9.298-2.236-2.148-5.55-3.216-9.93-3.216h-6.026v24.675zM272.811 96.765c-2.395 0-4.608-.454-6.673-1.352a16.377 16.377 0 0 1-5.379-3.762 17.871 17.871 0 0 1-3.586-5.58c-.862-2.115-1.294-4.377-1.294-6.809 0-2.42.42-4.694 1.271-6.808s2.043-3.967 3.586-5.558a16.766 16.766 0 0 1 5.402-3.74c2.054-.897 4.278-1.34 6.673-1.34 2.394 0 4.607.443 6.673 1.34a16.87 16.87 0 0 1 5.401 3.74 17.245 17.245 0 0 1 3.609 5.558c.862 2.114 1.294 4.376 1.294 6.808 0 2.421-.432 4.694-1.294 6.808a17.596 17.596 0 0 1-3.609 5.58 16.582 16.582 0 0 1-5.401 3.763c-2.066.91-4.279 1.352-6.673 1.352zm0-4.49c2.417 0 4.528-.602 6.321-1.795 1.793-1.193 3.189-2.785 4.176-4.762.999-1.978 1.486-4.149 1.486-6.501 0-2.399-.487-4.58-1.463-6.558-.976-1.978-2.361-3.558-4.154-4.74-1.793-1.182-3.915-1.773-6.366-1.773-2.429 0-4.528.59-6.321 1.773-1.793 1.182-3.178 2.762-4.154 4.74-.975 1.977-1.463 4.16-1.463 6.558 0 2.364.488 4.523 1.463 6.5.976 1.978 2.361 3.57 4.154 4.763 1.793 1.205 3.904 1.796 6.321 1.796zM293.521 90.935l3.382-3.092a23.049 23.049 0 0 0 2.19 2.092 11.384 11.384 0 0 0 2.917 1.75c1.112.466 2.383.693 3.813.693 2.19 0 3.892-.511 5.129-1.523 1.226-1.011 1.839-2.353 1.839-4.012 0-1.864-.693-3.24-2.066-4.137-1.373-.898-3.393-1.625-6.048-2.194-2.826-.602-5.118-1.682-6.889-3.262-1.77-1.58-2.667-3.682-2.667-6.308 0-1.625.42-3.137 1.249-4.512.828-1.375 2.076-2.489 3.733-3.342 1.657-.852 3.7-1.272 6.117-1.272 2.156 0 3.938.295 5.356.875 1.407.58 2.508 1.239 3.314 1.966.794.727 1.362 1.33 1.691 1.796l-3.189 2.944c-.261-.33-.715-.762-1.339-1.296-.636-.534-1.441-1-2.417-1.42-.976-.421-2.179-.626-3.609-.626-1.396 0-2.542.239-3.438.727-.897.478-1.555 1.08-1.986 1.796-.432.716-.647 1.455-.647 2.216 0 1.626.681 2.853 2.042 3.66 1.362.819 3.303 1.5 5.822 2.069 1.657.364 3.234.943 4.732 1.716a9.95 9.95 0 0 1 3.654 3.24c.942 1.375 1.419 3.193 1.419 5.455 0 1.932-.511 3.626-1.543 5.08-1.033 1.467-2.418 2.615-4.177 3.467-1.759.853-3.745 1.273-5.969 1.273-2.054 0-3.892-.296-5.504-.898-1.611-.602-2.984-1.352-4.13-2.273-1.169-.898-2.088-1.784-2.781-2.648zM331.685 95.924V66.862h-11.893v-4.183h28.518v4.183h-11.847v29.062h-4.778zM345.825 95.924l12.994-33.245h4.879l12.994 33.245h-5.322l-3.439-9.274h-13.64l-3.439 9.274h-5.027zm9.85-13.309h10.804L361.1 68.01l-5.425 14.605zM386.191 95.924L373.356 62.68h5.322l10.1 27.324 10.1-27.312h5.027L391.07 95.936l-4.879-.012zM407.741 95.924V62.68h4.732v15.105l13.89-15.105h5.47l-12.347 13.56 13.834 19.685h-5.72l-11.348-16.298-3.779 4.091v12.219l-4.732-.012zM435.26 95.924l12.994-33.245h4.879l12.994 33.245h-5.322l-3.439-9.274h-13.64l-3.439 9.274h-5.027zm9.85-13.309h10.804l-5.379-14.605-5.425 14.605zM235.169 124.623l1.884 1.989a8.281 8.281 0 0 1-2.622 1.944c-1.044.488-2.247.738-3.62.738-1.713 0-3.2-.375-4.437-1.114a7.71 7.71 0 0 1-2.894-3.023c-.681-1.273-1.032-2.705-1.032-4.307 0-1.671.363-3.16 1.078-4.467a8.074 8.074 0 0 1 2.984-3.103c1.271-.762 2.724-1.148 4.369-1.148 1.305 0 2.474.239 3.496.716a8.111 8.111 0 0 1 2.644 1.955l-2.02 1.955a5.27 5.27 0 0 0-1.748-1.41c-.681-.34-1.464-.511-2.326-.511-1.147 0-2.111.273-2.917.807a5.001 5.001 0 0 0-1.816 2.148 6.873 6.873 0 0 0-.612 2.887 6.84 6.84 0 0 0 .612 2.864 5.248 5.248 0 0 0 1.805 2.194c.783.557 1.759.841 2.894.841.896 0 1.713-.182 2.451-.534a5.408 5.408 0 0 0 1.827-1.421zM251.59 112.632h11.518v16.174h-3.087v-13.401h-5.696c-.159 2.774-.477 5.16-.942 7.184-.465 2.011-1.192 3.568-2.156 4.66-.976 1.091-2.293 1.636-3.961 1.636h-.34c-.114 0-.227-.011-.341-.034v-2.716h.17c1.283 0 2.247-.557 2.894-1.682.647-1.126 1.112-2.694 1.373-4.729.261-2.023.454-4.387.568-7.092zM283.035 129.294c-1.441 0-2.734-.329-3.881-.977-1.146-.648-2.076-1.534-2.814-2.648a8.87 8.87 0 0 1-1.373-3.728h-3.915v6.865h-3.087v-16.174h3.087v6.626h3.949c.204-1.352.67-2.568 1.407-3.637a8.029 8.029 0 0 1 2.792-2.557c1.135-.625 2.406-.943 3.824-.943 1.578 0 2.973.386 4.199 1.17a8.446 8.446 0 0 1 2.894 3.103c.703 1.296 1.066 2.728 1.066 4.308 0 1.557-.351 2.989-1.066 4.296-.715 1.307-1.68 2.353-2.894 3.126-1.214.773-2.61 1.17-4.188 1.17zm-.034-2.671c1.056 0 1.952-.284 2.713-.863a5.626 5.626 0 0 0 1.747-2.194 6.7 6.7 0 0 0 .613-2.819c0-.989-.204-1.932-.613-2.83a5.603 5.603 0 0 0-1.77-2.228c-.76-.579-1.68-.875-2.724-.875-1.032 0-1.917.284-2.678.864-.76.568-1.339 1.307-1.747 2.194a6.698 6.698 0 0 0-.613 2.818c0 .989.204 1.933.613 2.831a5.746 5.746 0 0 0 1.747 2.227c.761.58 1.657.875 2.712.875zM304.098 113.325c1.486 0 2.791.341 3.904 1.035 1.123.682 1.997 1.625 2.644 2.818.635 1.194.964 2.535.964 4.024 0 1.534-.34 2.909-1.01 4.137a7.438 7.438 0 0 1-2.825 2.898c-1.215.705-2.633 1.069-4.256 1.069a9.027 9.027 0 0 1-2.928-.5c-.976-.33-1.861-.898-2.678-1.683-.817-.784-1.464-1.875-1.952-3.262-.488-1.386-.737-3.114-.737-5.205 0-7.467 3.517-11.548 10.565-12.264l4.017-.409.374 2.648-4.085.444c-2.701.295-4.653 1.011-5.878 2.148-1.226 1.136-1.929 2.864-2.111 5.205a6.433 6.433 0 0 1 2.576-2.296c1.033-.545 2.179-.807 3.416-.807zm-.658 13.298c1.01 0 1.883-.238 2.644-.716a4.738 4.738 0 0 0 1.747-1.943c.409-.807.613-1.728.613-2.728 0-1.489-.442-2.728-1.339-3.728-.896-1-2.111-1.489-3.665-1.489-1.033 0-1.918.239-2.679.705a4.792 4.792 0 0 0-1.736 1.886 5.803 5.803 0 0 0-.601 2.626c0 .966.204 1.853.613 2.682a4.96 4.96 0 0 0 1.736 1.978c.749.477 1.634.727 2.667.727zM323.469 129.294c-1.623 0-3.075-.386-4.358-1.17a8.17 8.17 0 0 1-2.996-3.126c-.714-1.307-1.078-2.739-1.078-4.296 0-1.58.364-3.012 1.078-4.308a8.268 8.268 0 0 1 2.996-3.103c1.283-.773 2.735-1.17 4.358-1.17 1.623 0 3.064.386 4.335 1.17a8.534 8.534 0 0 1 2.996 3.103c.726 1.296 1.101 2.728 1.101 4.308 0 1.557-.363 2.989-1.101 4.296a8.513 8.513 0 0 1-2.996 3.126c-1.271.784-2.712 1.17-4.335 1.17zm0-2.671c1.124 0 2.077-.284 2.86-.863a5.602 5.602 0 0 0 1.816-2.217 6.693 6.693 0 0 0 .635-2.83c0-.977-.216-1.921-.635-2.819a5.628 5.628 0 0 0-1.839-2.216c-.806-.58-1.747-.875-2.848-.875-1.101 0-2.043.284-2.849.852a5.654 5.654 0 0 0-1.838 2.194 6.632 6.632 0 0 0-.636 2.853c0 .966.216 1.898.647 2.796a5.766 5.766 0 0 0 1.839 2.227c.805.603 1.747.898 2.848.898zM336.054 128.817v-16.174h8.432c1.691 0 2.962.387 3.802 1.148.851.762 1.271 1.739 1.271 2.899 0 .92-.25 1.693-.738 2.33-.488.636-1.101 1.079-1.838 1.307a4.898 4.898 0 0 1 2.326 1.25c.658.625.999 1.557.999 2.796 0 1.057-.261 1.909-.772 2.557-.511.648-1.192 1.125-2.043 1.421a8.296 8.296 0 0 1-2.746.443l-8.693.023zm2.985-13.775v4.364h4.766c.828 0 1.475-.182 1.975-.545.488-.364.737-.944.737-1.717 0-.773-.238-1.318-.715-1.636-.476-.319-1.078-.466-1.781-.466h-4.982zm0 6.705v4.672h5.311c.726 0 1.396-.159 1.986-.466.59-.307.896-.932.896-1.876 0-.988-.352-1.614-1.067-1.909-.715-.284-1.645-.432-2.814-.432l-4.312.011zM354.438 112.643h3.087v5.433h4.596c1.827 0 3.268.478 4.324 1.444 1.055.966 1.577 2.25 1.577 3.887 0 1.671-.556 2.989-1.668 3.967-1.112.977-2.553 1.454-4.335 1.454h-7.581v-16.185zm3.087 7.866v5.876h4.119c1.147 0 1.986-.262 2.542-.773.545-.512.817-1.228.817-2.148 0-.944-.283-1.671-.862-2.183-.567-.511-1.407-.772-2.508-.772h-4.108zM386.905 129.306c-1.441 0-2.734-.33-3.881-.978-1.146-.648-2.076-1.534-2.814-2.648a8.857 8.857 0 0 1-1.373-3.728h-3.915v6.865h-3.087v-16.174h3.087v6.627h3.949c.204-1.353.67-2.569 1.407-3.637a8.022 8.022 0 0 1 2.792-2.558c1.135-.625 2.406-.943 3.824-.943 1.578 0 2.973.386 4.199 1.171a8.431 8.431 0 0 1 2.894 3.103c.703 1.295 1.066 2.727 1.066 4.307 0 1.557-.351 2.989-1.066 4.296-.715 1.307-1.68 2.353-2.894 3.126-1.203.784-2.61 1.171-4.188 1.171zm-.034-2.683c1.056 0 1.952-.284 2.713-.863a5.626 5.626 0 0 0 1.747-2.194 6.7 6.7 0 0 0 .613-2.819c0-.989-.204-1.932-.613-2.83a5.603 5.603 0 0 0-1.77-2.228c-.76-.579-1.68-.875-2.724-.875-1.032 0-1.917.284-2.678.864-.76.568-1.339 1.307-1.747 2.194a6.698 6.698 0 0 0-.613 2.818c0 .989.204 1.933.613 2.831a5.746 5.746 0 0 0 1.747 2.227c.761.58 1.668.875 2.712.875z" fill="#243746"/><path d="M62.813 42.757c3.125-11.716-1.415-45.134-30.783-39.87C14.884 5.947.06 32.947.934 59.457c.471 14.358 13.27 36.741 30.031 54.858 26.487 28.609 52.695 48.702 51.944 39.119C81.652 136.996 72.45 63.9 57.714 64.127c-7.752.122-17.827 8.306-20.655 14.165-2.008 4.161 2.898 2.535 10.354 6.417 12.99 6.75 18.665 26.179 17.826 29.606-1.606 6.488-21.807-5.736-32.667-31.11-11.28-26.318-3.23-45.449 3.719-45.571 5.5-.088 9.673 9.618 10.738 16.595 1.361 8.831 12.728-.035 15.783-11.472z" fill="#ED1846"/><path d="M60.962 5.702c-2.322 1.609 4.347 5.316 10.86 42.756 3.475 19.97 8.817 52.304 12.414 83.274 1.956 16.91 5.552 32.684 7.543 34.835 2.27 2.431 3.632 3.445 7.054 2.063 5.098-2.046 15.085-8.866 23.903-16.035 13.741-11.175 19.049-15.826 19.59-20.635.559-4.914-17.355-18.327-25.474-6.418-9.324 13.675-19.73 32.351-22.21.245-2.88-37.108 3.16-86.3-1.047-96.163-8.259-19.41-27.971-27.157-32.633-23.922z" fill="#ED1846"/><path d="M126.559 83.45c.245 10.387-4.888 15.494-10.773 15.039-9.201-.734-4.085-53.528-1.169-55.767 3.422-2.64 11.698 30.515 11.942 40.728zm-16.761-67.081c-2.078 1.941-7.84 9.11-8.8 13.797-3.929 19.166-3.405 76.857-2.288 93.102.524 7.555 2.462 12.486 6.6 9.723 6.146-4.092 8.067-16.56 19.87-18.081 7.176-.927 18.071 9.303 21.144 11.873 3.719 3.113 12.816-4.057 11.018-15.353-4.837-30.726-36.51-105.396-47.544-95.061z" fill="#ED1846"/><path d="M123.207 17.995c37.662 58.303 32.214 92.858 42.201 92.351 3.353-.175 32.232-42.81 25.946-80.32-1.694-10.107-14.701-20.302-22.768-24.15-8.119-3.881-12.17-3.829-9.725 1.05 16.203 32.299 9.655 70.579 4.627 63.514-5.919-8.307-9.796-37.51-12.502-56.502-.803-5.63-1.397-10.527-2.584-12.083-1.676-2.186-12.92-.35-20.97 4.809-8.433 5.386-6.931 7.17-4.225 11.332z" fill="#ED1846"/></svg>